<svg xmlns="http://www.w3.org/2000/svg" viewBox="0 0 200 200" width="200" height="200">
  <defs>
    <linearGradient id="grad3" x1="0%" y1="0%" x2="100%" y2="100%">
      <stop offset="0%" style="stop-color:#FF6B00;stop-opacity:1" />
      <stop offset="100%" style="stop-color:#FF8C33;stop-opacity:1" />
    </linearGradient>
  </defs>
  <rect x="40" y="45" width="120" height="85" rx="8" fill="none" stroke="url(#grad3)" stroke-width="4"/>
  <line x1="40" y1="72" x2="160" y2="72" stroke="#FF6B00" stroke-width="2" opacity="0.3"/>
  <circle cx="55" cy="58" r="4" fill="#FF6B00" opacity="0.5"/>
  <circle cx="68" cy="58" r="4" fill="#FF6B00" opacity="0.3"/>
  <circle cx="81" cy="58" r="4" fill="#FF6B00" opacity="0.2"/>
  <rect x="52" y="80" width="40" height="5" rx="2.5" fill="url(#grad3)" opacity="0.6"/>
  <rect x="52" y="90" width="55" height="5" rx="2.5" fill="url(#grad3)" opacity="0.4"/>
  <rect x="52" y="100" width="30" height="5" rx="2.5" fill="url(#grad3)" opacity="0.3"/>
  <rect x="115" y="78" width="35" height="35" rx="6" fill="url(#grad3)" opacity="0.2"/>
  <path d="M125 90 L140 90 M132.5 83 L132.5 98" stroke="#FF6B00" stroke-width="3" stroke-linecap="round"/>
  <path d="M70 140 L85 145 L100 135 L115 148 L130 138" stroke="url(#grad3)" stroke-width="3" fill="none" stroke-linecap="round" stroke-linejoin="round"/>
  <circle cx="70" cy="140" r="4" fill="#FF6B00"/>
  <circle cx="100" cy="135" r="4" fill="#FF6B00"/>
  <circle cx="130" cy="138" r="4" fill="#FF6B00"/>
  <path d="M65 155 L135 155" stroke="#FF6B00" stroke-width="1" opacity="0.2"/>
  <path d="M65 145 L65 160" stroke="#FF6B00" stroke-width="1" opacity="0.2"/>
</svg>
